<!-- created by svgstack.com | Attribution is required. --><svg width="201" height="205" viewBox="0 0 201 205" fill="none" xmlns="http://www.w3.org/2000/svg"><g clip-path="url(#clip0_106_2304)"><path d="M137.269 132.956C130.801 138.695 122.725 145.837 108.08 145.837H99.3222C88.7246 145.837 79.0855 141.985 72.1861 135.003C65.4464 128.181 61.7364 118.843 61.7364 108.707V96.725C61.7364 86.5889 65.4464 77.2516 72.1861 70.4291C79.0855 63.4469 88.7246 59.6007 99.3222 59.6007H108.08C122.742 59.6007 130.801 66.7368 137.269 72.4765C143.985 78.3936 149.778 83.5652 165.228 83.5652C167.584 83.5647 169.936 83.3765 172.263 83.0031L172.21 82.867C171.284 80.5688 170.199 78.3386 168.961 76.1925L158.636 58.3049C153.98 50.2412 147.283 43.5451 139.219 38.8898C131.154 34.2344 122.007 31.7838 112.695 31.7842H92.0382C82.7263 31.7838 73.579 34.2344 65.5145 38.8898C57.4505 43.5451 50.7536 50.2412 46.0973 58.3049L35.7719 76.1925C31.1172 84.257 28.6667 93.4049 28.6667 102.716C28.6667 112.027 31.1172 121.175 35.7719 129.24L46.0973 147.127C50.7536 155.191 57.4505 161.887 65.5145 166.543C73.579 171.198 82.7263 173.649 92.0382 173.648H112.695C122.007 173.649 131.154 171.198 139.219 166.543C147.283 161.887 153.98 155.191 158.636 147.127L168.961 129.269C170.199 127.123 171.284 124.893 172.21 122.595L172.263 122.465C169.938 122.078 167.585 121.881 165.228 121.873C149.778 121.873 143.985 127.015 137.269 132.962" fill="#006BFF"/><path d="M108.08 70.459H99.3223C83.1921 70.459 72.5945 81.9797 72.5945 96.7253V108.708C72.5945 123.453 83.1921 134.974 99.3223 134.974H108.08C131.583 134.974 129.736 111.009 165.228 111.009C168.59 111.005 171.946 111.315 175.251 111.932C176.328 105.835 176.328 99.5969 175.251 93.5004C171.945 94.1152 168.59 94.4241 165.228 94.4235C129.725 94.4235 131.583 70.459 108.08 70.459Z" fill="#006BFF"/><path d="M195.642 120.689C189.598 116.263 182.628 113.266 175.257 111.926C175.257 111.991 175.257 112.044 175.257 112.104C174.623 115.637 173.631 119.096 172.299 122.429C178.387 123.372 184.164 125.751 189.151 129.37C189.151 129.417 189.121 129.476 189.103 129.53C182.685 150.312 169.026 168.102 150.606 179.67C132.186 191.237 110.228 195.814 88.721 192.569C67.2139 189.323 47.5841 178.471 33.3978 161.984C19.2115 145.496 11.4097 124.467 11.4097 102.716C11.4097 80.9652 19.2115 59.9362 33.3978 43.4487C47.5841 26.961 67.2139 16.1089 88.721 12.8635C110.228 9.61807 132.186 14.1948 150.606 25.7622C169.026 37.3296 182.685 55.1203 189.103 75.9025C189.103 75.9557 189.133 76.0149 189.151 76.0622C184.165 79.6812 178.387 82.0587 172.299 82.9971C173.63 86.3344 174.621 89.7977 175.257 93.3344C175.254 93.3894 175.254 93.4451 175.257 93.5001C182.628 92.1622 189.597 89.1675 195.642 84.7427C201.452 80.4409 200.328 75.5829 199.446 72.7072C192.262 49.4061 176.957 29.4555 156.312 16.4807C135.668 3.50592 111.053 -1.63198 86.9417 2.00063C62.8305 5.63324 40.8223 17.7953 24.9167 36.2768C9.011 54.7582 0.263428 78.3326 0.263428 102.716C0.263428 127.099 9.011 150.674 24.9167 169.155C40.8223 187.637 62.8305 199.799 86.9417 203.431C111.053 207.064 135.668 201.926 156.312 188.952C176.957 175.976 192.262 156.026 199.446 132.725C200.328 129.849 201.452 124.991 195.642 120.689Z" fill="#006BFF"/><path d="M172.263 82.9974C169.938 83.3837 167.585 83.5814 165.228 83.5891C149.778 83.5891 143.985 78.4471 137.275 72.5003C130.802 66.7607 122.742 59.6187 108.08 59.6187H99.3224C88.7188 59.6187 79.0857 63.4707 72.1863 70.453C65.4466 77.2755 61.7366 86.6127 61.7366 96.7488V108.731C61.7366 118.867 65.4466 128.204 72.1863 135.027C79.0857 142.009 88.7188 145.855 99.3224 145.855H108.08C122.742 145.855 130.802 138.719 137.275 132.98C143.985 127.062 149.778 121.891 165.228 121.891C167.584 121.891 169.937 122.08 172.263 122.453C173.599 119.121 174.59 115.661 175.222 112.128C175.225 112.068 175.225 112.009 175.222 111.95C171.916 111.337 168.56 111.03 165.198 111.033C129.695 111.033 131.553 135.003 108.05 135.003H99.2928C83.1626 135.003 72.565 123.477 72.565 108.731V96.7252C72.565 81.9796 83.1626 70.4589 99.2928 70.4589H108.05C131.553 70.4589 129.707 94.4175 165.198 94.4175C168.561 94.4234 171.916 94.1163 175.222 93.5003C175.222 93.4471 175.222 93.3938 175.222 93.3346C174.586 89.7979 173.595 86.3346 172.263 82.9974Z" fill="#0AE8F0"/><path d="M172.263 82.9974C169.938 83.3837 167.585 83.5814 165.228 83.5891C149.778 83.5891 143.985 78.4471 137.275 72.5003C130.802 66.7607 122.742 59.6187 108.08 59.6187H99.3224C88.7188 59.6187 79.0857 63.4707 72.1863 70.453C65.4466 77.2755 61.7366 86.6127 61.7366 96.7488V108.731C61.7366 118.867 65.4466 128.204 72.1863 135.027C79.0857 142.009 88.7188 145.855 99.3224 145.855H108.08C122.742 145.855 130.802 138.719 137.275 132.98C143.985 127.062 149.778 121.891 165.228 121.891C167.584 121.891 169.937 122.08 172.263 122.453C173.599 119.121 174.59 115.661 175.222 112.128C175.225 112.068 175.225 112.009 175.222 111.95C171.916 111.337 168.56 111.03 165.198 111.033C129.695 111.033 131.553 135.003 108.05 135.003H99.2928C83.1626 135.003 72.565 123.477 72.565 108.731V96.7252C72.565 81.9796 83.1626 70.4589 99.2928 70.4589H108.05C131.553 70.4589 129.707 94.4175 165.198 94.4175C168.561 94.4234 171.916 94.1163 175.222 93.5003C175.222 93.4471 175.222 93.3938 175.222 93.3346C174.586 89.7979 173.595 86.3346 172.263 82.9974Z" fill="#0AE8F0"/></g><defs><clipPath id="clip0_106_2304"><rect width="200" height="204.734" fill="white" transform="translate(0.239502 0.275391)"/></clipPath></defs></svg> 